<svg data-v-0dd9719b="" version="1.0" xmlns="http://www.w3.org/2000/svg" xmlns:xlink="http://www.w3.org/1999/xlink" width="100%" height="100%" viewBox="0 0 340.000000 250.000000" preserveAspectRatio="xMidYMid meet" color-interpolation-filters="sRGB" style="margin: auto;"> <rect data-v-0dd9719b="" x="0" y="0" width="100%" height="100%" fill="#fff" fill-opacity="1" class="background"></rect> <rect data-v-0dd9719b="" x="0" y="0" width="100%" height="100%" fill="url(#watermark)" fill-opacity="1" class="watermarklayer"></rect> <g data-v-0dd9719b="" fill="#fd9f30" class="icon-text-wrapper icon-svg-group iconsvg" transform="translate(48.184791564941406,88.32249069213867)"><g class="iconsvg-imagesvg" transform="translate(0,0)"><g><rect fill="#fd9f30" fill-opacity="0" stroke-width="2" x="0" y="0" width="60" height="73.35501381519427" class="image-rect"></rect> <svg x="0" y="0" width="60" height="73.35501381519427" filtersec="colorsb5418610185" class="image-svg-svg primary" style="overflow: visible;"><svg xmlns="http://www.w3.org/2000/svg" viewBox="-0.008144378662109375 0 145.589111328125 177.99403381347656"><title>资源 70</title><g><path d="M138.28 0v38.52c-1.95.09-3.87.27-5.79.26q-39.73-.06-79.49-.17c-7.28 0-11.35 2.27-13.33 7.46-2.24 5.86.23 10.17 4.38 14.22 9.51 9.31 18.84 18.82 28.37 28.39l27.16-27.63c5.88 6 10.87 11 15.89 16.08 5.17 5.2 10.5 10.25 15.52 15.58 14.39 15.28 18.3 33.22 11 52.66-7.41 19.68-22.35 31.33-43.53 32-29.29 1-58.63.47-87.95.58a28.67 28.67 0 0 1-2.93-.35c-.13-1.67-.35-3.25-.36-4.84 0-9.33.19-18.66-.11-28-.14-4.33 1.06-5.72 5.55-5.66 26.15.31 52.31.32 78.46.41a35 35 0 0 0 6-.25c8.88-1.53 13.26-12.32 7.15-18.83C94.23 109.8 83.59 99.71 72.8 89l-26.7 27.19a24.54 24.54 0 0 1-2.57-1.87C33.75 104.55 23.68 95 14.3 84.89-.47 68.91-4 50.19 4.62 30.29 13.15 10.56 29 .44 50.66.24c27-.24 54-.17 81-.24z" fill="#fd9f30"></path></g></svg></svg> <!----></g></g> <g transform="translate(67,12.453901290893555)"><g data-gra="path-name" fill-rule="" class="tp-name iconsvg-namesvg" transform="translate(0,0)"><g transform="scale(1)"><g><path d="M5.71-28.43L5.71-28.43Q7.87-29.71 9.89-26.94L9.89-26.94Q11.34-26.15 11.25-25.18L11.25-25.18Q10.94-23.25 8.53-24.61L8.53-24.61Q7.03-25 5.54-25.27L5.54-25.27Q4.35-25.97 4.39-26.46L4.39-26.46Q4.26-27.55 5.71-28.43ZM15.91-28.21L15.91-28.21Q16.96-28.48 18.02-28.56L18.02-28.56Q29.49-28.83 35.16-28.17L35.16-28.17Q37.97-27.73 38.67-25.36L38.67-25.36Q38.67-24.26 39.07-23.38L39.07-23.38Q39.99-21.84 38.67-19.91L38.67-19.91Q37.27-18.72 36.39-20.65L36.39-20.65Q35.86-21.97 35.51-24.17L35.51-24.17Q34.8-26.15 30.59-26.02L30.59-26.02Q22.28-26.37 18.72-25.8L18.72-25.8Q16.66-25.4 16.39-22.32L16.39-22.32Q16.83-19.69 14.5-19.29L14.5-19.29Q13.27-19.51 12.96-20.96L12.96-20.96Q12.96-22.59 13.27-23.47L13.27-23.47 14.46-26.98Q14.72-27.86 15.91-28.21ZM20.83-23.33L20.83-23.33Q21.84-25.49 23.73-23.55L23.73-23.55Q25.36-21.84 22.81-20.43L22.81-20.43Q21.67-19.86 19.29-18.19L19.29-18.19Q17.8-17.09 16.88-17.93L16.88-17.93Q16.74-18.19 17.93-19.82L17.93-19.82Q19.47-21.58 20.83-23.33ZM28.21-24.3L28.21-24.3Q29.49-24.92 30.59-24.13L30.59-24.13Q32.7-22.15 34.28-19.82L34.28-19.82Q35.11-18.76 34.58-18.02L34.58-18.02Q34.06-17.49 33.18-18.02L33.18-18.02Q30.1-20.61 27.6-21.93L27.6-21.93Q26.15-23.29 28.21-24.3ZM24.79-16.48L24.79-16.48Q24.87-19.56 27.11-18.72L27.11-18.72Q27.82-18.02 27.86-16.26L27.86-16.26Q27.91-15.21 29.22-15.16L29.22-15.16Q33.49-15.25 35.29-14.99L35.29-14.99Q36.43-15.12 36.74-14.02L36.74-14.02Q37.05-13.1 35.77-12.48L35.77-12.48Q34.98-12.3 34.15-12.35L34.15-12.35Q31.64-12.48 29.09-12.44L29.09-12.44Q27.47-12.35 28.74-11.47L28.74-11.47Q29.4-10.9 30.19-10.5L30.19-10.5Q31.95-9.58 33.71-8.53L33.71-8.53Q38.45-5.63 42.5-4.44L42.5-4.44Q44.25-3.65 42.36-2.11L42.36-2.11Q38.63 0.53 35.95-2.46L35.95-2.46Q32.12-6.2 29-8.17L29-8.17Q27.86-8.79 27.82-7.47L27.82-7.47 27.82 0.18Q27.73 1.41 27.33 2.15L27.33 2.15Q26.5 3.47 25.31 2.37L25.31 2.37Q25.09 2.07 25 1.19L25 1.19Q24.79-0.7 24.74-4.83L24.74-4.83 24.74-7.43Q24.74-8.53 23.38-7.47L23.38-7.47Q17.84-2.59 14.11-1.71L14.11-1.71Q11.16-1.71 11.91-4.13L11.91-4.13Q12.48-5.1 13.27-5.19L13.27-5.19Q19.25-7.47 23.69-11.34L23.69-11.34Q24.57-12.39 23.51-12.39L23.51-12.39Q20.48-12.39 17.8-12L17.8-12Q16.7-11.78 15.78-12.39L15.78-12.39Q15.07-12.83 15.64-14.11L15.64-14.11Q16.57-15.6 18.06-15.51L18.06-15.51Q20.57-15.07 23.64-15.16L23.64-15.16Q24.7-15.16 24.79-16.48ZM2.64-17.23L2.64-17.23Q3.91-18.85 5.71-18.33L5.71-18.33Q6.77-17.53 7.95-16.92L7.95-16.92Q9.76-16.44 9.62-15.07L9.62-15.07Q9.36-14.02 8.57-14.15L8.57-14.15Q7.03-14.46 5.49-14.63L5.49-14.63Q3.56-14.28 2.37-15.47L2.37-15.47Q1.89-16.26 2.64-17.23ZM9.4-9.49L9.4-9.49Q10.77-10.15 11.25-9.01L11.25-9.01Q11.29-8.26 10.46-6.94L10.46-6.94Q9.1-5.19 8.09-3.43L8.09-3.43Q6.33 0.22 3.87-2.42L3.87-2.42Q2.55-4.17 4.61-5.54L4.61-5.54Q5.84-6.2 8.13-8.39L8.13-8.39Q8.7-9.01 9.4-9.49ZM82.27-29.14L82.27-29.14Q83.89-29.75 85.21-27.73L85.21-27.73Q85.47-27.11 85.39-26.28L85.39-26.28Q83.94-18.5 85.12-4.22L85.12-4.22Q85.43-1.71 85.39 0.09L85.39 0.09Q85.39 1.36 84.2 1.98L84.2 1.98Q82.31 2.15 82-0.13L82-0.13Q81.65-2.2 81.83-4.39L81.83-4.39 81.78-26.98Q81.56-28.26 82.27-29.14ZM55.11-26.81L55.11-26.81Q55.85-27.86 57.13-27.47L57.13-27.47Q59.33-26.19 58.58-23.51L58.58-23.51Q58.23-21.84 58.18-20.04L58.18-20.04Q58.18-18.94 59.24-18.94L59.24-18.94 62.09-18.94Q63.5-18.63 63.5-17.45L63.5-17.45Q63.02-15.47 60.82-15.95L60.82-15.95Q60.07-16.04 59.28-16L59.28-16Q58.18-16 58.18-14.94L58.18-14.94Q58.18-12.61 58.32-10.28L58.32-10.28Q58.32-9.23 59.63-9.45L59.63-9.45Q61.96-9.84 62.89-9.67L62.89-9.67Q64.51-8.04 61.74-7.08L61.74-7.08Q56.38-5.89 51.2-3.78L51.2-3.78Q49.7-2.9 48.38-3.56L48.38-3.56Q47.42-4.61 48.74-5.98L48.74-5.98Q50.05-7.65 54.01-8.22L54.01-8.22Q54.98-8.44 54.98-9.58L54.98-9.58Q55.15-12.26 55.15-14.99L55.15-14.99Q55.15-16.04 53.75-16L53.75-16Q52.25-15.86 50.76-15.56L50.76-15.56Q49.53-15.34 48.87-16.35L48.87-16.35Q48.47-17.71 49.83-18.72L49.83-18.72Q50.98-19.69 52.47-19.25L52.47-19.25 54.05-19.07Q55.11-18.98 55.06-20.3L55.06-20.3 54.89-23.42Q54.54-25.84 55.11-26.81ZM67.1-27.03L67.1-27.03Q68.73-28.13 69.87-25.66L69.87-25.66Q70.05-23.73 69.57-18.46L69.57-18.46Q69.83-13.36 68.55-8.96L68.55-8.96Q66.75-3.56 62.18 0.13L62.18 0.13Q60.73 1.32 59.28 0.44L59.28 0.44Q58.1-0.35 58.71-1.85L58.71-1.85Q58.89-2.33 59.41-2.68L59.41-2.68Q60.91-3.3 62.75-5.27L62.75-5.27Q66.05-8.7 66.36-12.3L66.36-12.3Q67.19-16.48 66.31-24.87L66.31-24.87Q66.31-25.84 66.49-26.28 66.67-26.72 67.1-27.03ZM75.1-27.03L75.1-27.03Q75.94-27.38 76.6-26.63L76.6-26.63Q77.56-25.62 77.3-23.86L77.3-23.86Q76.55-16.04 76.86-7.65L76.86-7.65Q76.99-5.67 76.64-4.75L76.64-4.75Q76.07-2.81 74.44-3.65L74.44-3.65Q73.56-4.26 73.56-5.05L73.56-5.05Q74-18.28 73.92-25.49L73.92-25.49Q73.96-26.54 75.1-27.03ZM99.62-28.65L99.62-28.65Q100.06-30.54 102.08-29.62L102.08-29.62Q103.58-28.17 102.96-26.5L102.96-26.5Q102.52-25.09 102.44-23.64L102.44-23.64Q102.39-22.59 103.45-22.59L103.45-22.59Q105.29-22.81 106.66-22.15L106.66-22.15Q107.58-21.05 106.44-20.3L106.44-20.3Q105.38-19.64 103.27-19.69L103.27-19.69Q102.22-19.6 102.22-18.54L102.22-18.54 102.22-16.66Q102.22-15.6 103.54-15.91L103.54-15.91Q104.19-16.13 105.07-15.95L105.07-15.95Q106.44-14.81 104.81-13.67L104.81-13.67Q104.41-13.23 103.36-12.92L103.36-12.92Q102.3-12.52 102.3-11.47L102.3-11.47Q102.61-5.76 102.39-1.76L102.39-1.76Q102.48-0.7 100.99 0.88L100.99 0.88Q99.4 2.42 97.47 2.72L97.47 2.72Q94.35 3.38 91.98 2.11L91.98 2.11Q91.54 1.63 91.41 1.14L91.41 1.14Q91.36 0.35 92.9 0.31L92.9 0.31 94.48 0.31Q97.95-0.13 99.18-2.99L99.18-2.99Q99.84-6.28 99.67-10.46L99.67-10.46Q99.67-11.56 98.31-10.85L98.31-10.85Q95.41-8.66 93.38-9.05L93.38-9.05Q92.15-10.37 94.26-12.39L94.26-12.39Q95.14-13.23 96.02-13.54L96.02-13.54Q97.21-13.71 98.53-14.24L98.53-14.24Q99.62-14.68 99.58-15.95L99.58-15.95Q99.49-17.18 99.54-18.46L99.54-18.46Q99.49-19.47 98.13-19.42L98.13-19.42Q94.83-19.16 93.52-19.25L93.52-19.25Q92.24-19.78 92.9-20.96L92.9-20.96Q94.22-23.16 96.64-22.9L96.64-22.9Q97.47-22.81 98.31-22.59L98.31-22.59Q99.45-22.5 99.4-23.77L99.4-23.77Q99.4-25.97 99.62-28.65ZM110.43-26.19L110.43-26.19Q112.15-26.41 115.8-26.1L115.8-26.1 125.99-26.19 126.87-26.06Q128.89-25.62 128.1-23.91L128.1-23.91Q127.66-23.42 126.25-23.25L126.25-23.25 124.45-23.42Q121.42-23.47 118.04-23.38L118.04-23.38Q115.36-23.33 112.63-23.16L112.63-23.16Q111.67-22.98 111.53-21.53L111.53-21.53Q111.62-16.44 111.01-12L111.01-12Q110.3-7.12 107.14-3.12L107.14-3.12Q104.99-0.57 103.36-1.54L103.36-1.54Q102.3-2.2 102.88-3.16L102.88-3.16Q103.67-4.48 105.69-6.68L105.69-6.68Q108.41-9.93 108.54-13.71L108.54-13.71Q109.12-19.07 108.33-22.63L108.33-22.63Q107.45-25.31 110.43-26.19ZM112.76-19.56L112.76-19.56Q113.07-20.96 114.79-21.14L114.79-21.14 126.21-21.05Q127.35-20.96 127.97-20.3L127.97-20.3Q128.54-19.2 127.22-18.46L127.22-18.46Q126.78-18.33 125.46-18.33L125.46-18.33Q119.18-18.54 116.28-18.24L116.28-18.24Q114.52-17.89 113.64-18.19L113.64-18.19Q112.68-18.54 112.76-19.56ZM111.62-14.77L111.62-14.77Q112.41-16.79 114.65-16.66L114.65-16.66Q115.97-16.3 118.56-16.44L118.56-16.44Q122.74-16.48 127.05-16.35L127.05-16.35Q128.19-16.44 128.5-15.42L128.5-15.42Q128.72-14.19 127.05-13.8L127.05-13.8Q120.1-13.75 112.98-13.36L112.98-13.36Q111.58-13.54 111.62-14.77ZM123.35-12.74L123.35-12.74Q125.07-14.24 125.95-12.04L125.95-12.04Q126.12-10.42 124.06-9.27L124.06-9.27Q122.92-8.66 123.93-7.69L123.93-7.69Q128.76-3.3 130.65-2.07L130.65-2.07Q132.06-1.32 133.46-0.4L133.46-0.4Q134.12 0.4 133.07 1.05L133.07 1.05Q131.35 2.24 129.11 2.02L129.11 2.02Q127.62 1.89 126.65 0.4L126.65 0.4Q123.84-4.61 120.85-6.81L120.85-6.81Q119.71-7.38 119.09-7.29L119.09-7.29Q117.73-6.86 117.07-7.08L117.07-7.08Q115.36-8 117.2-8.92L117.2-8.92Q120.63-10.06 123.35-12.74ZM112.15-11.91L112.15-11.91Q114.21-12.61 115.22-10.11L115.22-10.11Q114.52-7.08 114.52-3.34L114.52-3.34Q114.52-2.11 115.4-2.5L115.4-2.5 118.61-4Q119.79-4.48 119.97-4.48L119.97-4.48Q120.81-4.61 120.81-3.87L120.81-3.87Q120.85-3.08 119.66-2.07L119.66-2.07Q114.61 1.98 112.19 2.37L112.19 2.37Q110.39 2.2 110.7 0.09L110.7 0.09Q112.68-5.01 111.84-9.54L111.84-9.54Q111.36-10.9 112.15-11.91ZM153.37-29L153.37-29Q154.16-30.63 156.36-30.28L156.36-30.28Q157.54-29.84 157.72-28.87L157.72-28.87Q158.38-26.32 159.21-24.61L159.21-24.61Q159.57-23.51 160.58-23.51L160.58-23.51 161.72-23.51Q162.77-23.51 163.74-24.83L163.74-24.83Q165.15-26.89 166.03-29.27L166.03-29.27Q168.13-31.77 169.54-28.08L169.54-28.08Q169.67-26.81 168.44-26.06L168.44-26.06Q167.65-25.49 166.82-24.61L166.82-24.61Q165.76-23.55 167.12-23.6L167.12-23.6Q169.23-23.73 171.34-23.69L171.34-23.69Q173.19-23.69 173.14-22.06L173.14-22.06Q172.57-20.17 170.07-20.57L170.07-20.57Q167.3-20.79 164.53-20.83L164.53-20.83Q163.48-20.83 163.26-19.51L163.26-19.51 163.17-17.93Q163.17-16.83 164.22-16.83L164.22-16.83 169.67-16.83Q170.95-16.66 171.39-16.13L171.39-16.13Q171.96-15.16 171.34-14.37L171.34-14.37Q170.38-13.62 168.22-13.93L168.22-13.93 164.27-14.02Q163.17-14.02 163.17-12.96L163.17-12.96 163.17-10.85Q163.17-9.76 164.22-9.76L164.22-9.76Q170.99-9.36 177.93-8.26L177.93-8.26Q179.65-7.73 178.02-5.98L178.02-5.98Q176.35-3.82 174.55-4.48L174.55-4.48Q169.67-6.68 164.27-6.94L164.27-6.94Q163.17-6.94 163.17-5.89L163.17-5.89 163.3 0.4Q163.17 1.63 162.91 2.15L162.91 2.15Q161.98 3.87 160.75 2.64L160.75 2.64Q159.79 0.09 160.05-5.93L160.05-5.93Q160.05-6.99 158.95-6.99L158.95-6.99Q154.34-7.03 149.9-5.1L149.9-5.1Q148.75-4.48 147.61-4.88L147.61-4.88Q145.99-6.06 147.22-7.73L147.22-7.73Q148.01-8.96 149.33-9.14L149.33-9.14Q151.26-9.1 153.94-9.36L153.94-9.36 159.04-9.71Q160.14-9.71 160.14-10.77L160.14-10.77 160.14-12.96Q160.14-14.02 158.82-14.02L158.82-14.02Q155.96-13.93 153.68-13.62L153.68-13.62Q152.27-13.23 151.26-14.02L151.26-14.02Q150.51-14.85 151-15.69L151-15.69Q151.44-16.66 153.5-16.74L153.5-16.74Q155.3-16.92 159.04-16.88L159.04-16.88Q160.09-16.88 160.09-18.19L160.09-18.19Q160-18.9 160.05-19.64L160.05-19.64Q159.87-20.83 158.91-20.83L158.91-20.83Q156.67-20.92 152.84-20.3L152.84-20.3Q152.09-20.04 150.47-20.3L150.47-20.3Q149.85-20.52 149.81-21.23L149.81-21.23Q150.29-24.17 153.41-23.95L153.41-23.95 155.96-23.73Q157.1-23.64 156.01-25L156.01-25Q153.37-27.73 153.37-29ZM140.8-27.07L140.8-27.07Q142.82-28.34 144.49-26.63L144.49-26.63Q145.37-25.93 146.25-25.4L146.25-25.4Q148.18-24.39 147.17-22.85L147.17-22.85Q146.38-22.41 144.71-23.2L144.71-23.2Q142.95-23.73 141.2-24.08L141.2-24.08Q138.6-25.14 140.8-27.07ZM138.6-17.09L138.6-17.09Q140.14-18.76 141.9-17.8L141.9-17.8Q142.95-17.01 144.54-16.35L144.54-16.35Q145.55-16.26 145.85-15.07L145.85-15.07Q146.03-13.62 144.49-13.75L144.49-13.75Q142.38-14.41 139.61-14.37L139.61-14.37Q136.89-14.94 138.6-17.09ZM144.05-9.58L144.05-9.58Q145.24-10.81 146.29-9.93L146.29-9.93Q146.6-9.27 146.21-8.79L146.21-8.79Q145.59-7.21 143.79-5.27L143.79-5.27Q142.78-3.56 141.99-2.72L141.99-2.72Q140.01-1.19 138.56-4.04L138.56-4.04Q138.21-5.27 139.66-6.15L139.66-6.15Q141.86-7.69 144.05-9.58Z" transform="translate(-2.182682991027832, 30.341869354248047)"></path></g> <!----> <!----> <!----> <!----> <!----> <!----> <!----></g></g> <g data-gra="path-slogan" fill-rule="" class="tp-slogan iconsvg-slogansvg" fill="#fd9f30" transform="translate(21.354385375976562,39.49471664428711)"><!----> <!----> <g transform="scale(1, 1)"><g transform="scale(1)"><path d="M7.17-6.09L7.17-6.09L6.09-6.09Q6-7.73 3.94-7.83L3.94-7.83Q2.02-7.78 2.02-6.33L2.02-6.33Q2.02-5.39 3.05-5.25L3.05-5.25L5.48-4.69Q7.41-4.22 7.41-2.34L7.41-2.34Q7.36 0.05 4.03 0.14L4.03 0.14Q2.20 0.14 1.45-0.61L1.45-0.61Q0.52-1.31 0.56-2.77L0.56-2.77L1.69-2.77Q1.73-0.80 4.03-0.75L4.03-0.75Q6.28-0.80 6.33-2.20L6.33-2.20Q6.52-3.38 4.45-3.75L4.45-3.75L2.67-4.13Q0.84-4.64 0.84-6.19L0.84-6.19Q0.98-8.72 3.84-8.81L3.84-8.81Q7.08-8.81 7.17-6.09ZM10.03-5.06L14.53-5.06L14.53-8.58L15.70-8.58L15.70 0L14.53 0L14.53-3.98L10.03-3.98L10.03 0L8.86 0L8.86-8.58L10.03-8.58L10.03-5.06ZM18.80-1.03L23.95-1.03L23.95 0L17.63 0L17.63-8.58L23.86-8.58L23.86-7.59L18.80-7.59L18.80-4.92L23.48-4.92L23.48-3.89L18.80-3.89L18.80-1.03ZM26.86-8.58L31.17-1.64L31.17-8.58L32.30-8.58L32.30 0L30.98 0L26.63-6.94L26.58-6.94L26.58 0L25.45 0L25.45-8.58L26.86-8.58ZM34.92-1.03L40.22-1.03L40.22 0L33.47 0L33.47-0.94L38.72-7.59L33.84-7.59L33.84-8.58L40.22-8.58L40.22-7.59L34.92-1.03ZM42.52-5.06L47.02-5.06L47.02-8.58L48.19-8.58L48.19 0L47.02 0L47.02-3.98L42.52-3.98L42.52 0L41.34 0L41.34-8.58L42.52-8.58L42.52-5.06ZM51.28-1.03L56.44-1.03L56.44 0L50.11 0L50.11-8.58L56.34-8.58L56.34-7.59L51.28-7.59L51.28-4.92L55.97-4.92L55.97-3.89L51.28-3.89L51.28-1.03ZM59.34-8.58L63.66-1.64L63.66-8.58L64.78-8.58L64.78 0L63.47 0L59.11-6.94L59.06-6.94L59.06 0L57.94 0L57.94-8.58L59.34-8.58ZM70.73-1.03L76.03-1.03L76.03 0L69.28 0L69.28-0.94L74.53-7.59L69.66-7.59L69.66-8.58L76.03-8.58L76.03-7.59L70.73-1.03ZM78.33-5.06L82.83-5.06L82.83-8.58L84-8.58L84 0L82.83 0L82.83-3.98L78.33-3.98L78.33 0L77.16 0L77.16-8.58L78.33-8.58L78.33-5.06ZM87.09-1.03L92.25-1.03L92.25 0L85.92 0L85.92-8.58L92.16-8.58L92.16-7.59L87.09-7.59L87.09-4.92L91.78-4.92L91.78-3.89L87.09-3.89L87.09-1.03ZM95.16-8.58L99.47-1.64L99.47-8.58L100.59-8.58L100.59 0L99.28 0L94.92-6.94L94.88-6.94L94.88 0L93.75 0L93.75-8.58L95.16-8.58ZM109.31-8.58L106.08-3.47L106.08 0L104.91 0L104.91-3.47L101.67-8.58L103.03-8.58L105.47-4.45L107.95-8.58L109.31-8.58ZM116.02 0L115.17-2.48L111.70-2.48L110.81 0L109.64 0L112.88-8.58L114.19-8.58L117.28 0L116.02 0ZM113.44-7.31L112.08-3.52L114.75-3.52L113.48-7.31L113.44-7.31ZM119.72-8.58L124.03-1.64L124.03-8.58L125.16-8.58L125.16 0L123.84 0L119.48-6.94L119.44-6.94L119.44 0L118.31 0L118.31-8.58L119.72-8.58ZM133.36-3.61L130.73-3.61L130.73-4.59L134.48-4.59L134.48 0L133.73 0L133.45-1.08Q132.47 0.09 130.64 0.14L130.64 0.14Q128.91 0.14 127.97-0.75L127.97-0.75Q126.56-2.06 126.61-4.36L126.61-4.36Q126.94-8.63 130.69-8.81L130.69-8.81Q133.88-8.63 134.34-6L134.34-6L133.22-6Q132.75-7.78 130.64-7.83L130.64-7.83Q127.97-7.64 127.83-4.31L127.83-4.31Q127.83-0.75 130.69-0.75L130.69-0.75Q131.72-0.75 132.47-1.31L132.47-1.31Q133.41-2.06 133.36-3.61L133.36-3.61Z" transform="translate(-0.5602678571428572, 8.8125)"></path></g></g></g></g></g><defs v-gra="od"></defs></svg>